/* XPM */
static char * bottom_active_xpm[] = {
"2 8 6 1",
" 	c #4729A4",
".	c #5A35CC",
"+	c #BDE9FB",
"@	c #9CDDF8",
"#	c #82D5F7",
"$	c #4C2CB0",
"  ",
"..",
"+@",
"@@",
"@@",
"@#",
"$$",
"  "};
