/* XPM */
static char * bottom_left_active_xpm[] = {
"64 8 11 1",
" 	c #4729A4",
".	c #5A35CC",
"+	c #BDE9FB",
"@	c #9CDDF8",
"#	c #4C2CB0",
"$	c #82D5F7",
"%	c #5230BC",
"&	c #DB86FF",
"*	c #89D9F9",
"=	c #DA83FF",
"-	c #87D8F9",
" .+@@@##                                                        ",
" .@+@$%.........................................................",
" .+@@@+@+@+@+@+@+@+@+@+@+@+@+@+@+@+@+@+@+@+@+@+@@+@+@+@+@+@+@+@+",
" .@+@@@@@@@@@@@@@@@@@@@@@@@@@@@@@@@@@@@@@@@@@@@@@@@@@@@@@@@@@@@@",
" .+@@@@@@####################@@@@@@#####################@@@@@@@@",
" .@$@$@$@                    $@$@$@                     $@$@$@$@",
" .########&&&&&&&&&&&&&&&&&&########*********#*********#########",
"          ==================        --------- ---------         "};
