/* XPM */
static char * hide_pressed_xpm[] = {
"25 31 4 1",
" 	c #E6DDE6",
".	c #C4AFC4",
"+	c #99759A",
"@	c #5D445D",
"                       .+",
". . . . . . . . . . . .++",
"........................+",
"........................+",
"+.+.+.+.+.+.+.+.+.+.+.+.+",
".+.+.+.+.+.+.+.+.+.+.+.+.",
"@@@@@@@@@@@@@@@@@@@@@@@@@",
"+++++++++++++++++++++++++",
"+.+.+.+.+.+.+.+.+.+.+.+..",
"++...................... ",
"+....................... ",
"++.....................  ",
"+....................... ",
"++.....................  ",
"+....................... ",
"++.....................  ",
"+........@@@@........... ",
"++.......@..@@.........  ",
"+........@..@@.......... ",
"++.......@@@@@.........  ",
"+.........@@@@.......... ",
"++.....................  ",
"+....................... ",
"++.....................  ",
"+....................... ",
"++.....................  ",
"+....................... ",
"++.....................  ",
"+. . . . . . . . . . . . ",
".                        ",
"@@@@@@@@@@@@@@@@@@@@@@@@@"};
