/* XPM */
static char * left_active_xpm[] = {
"8 2 7 1",
" 	c #4729A4",
".	c #5A35CC",
"+	c #BDE9FB",
"@	c #9CDDF8",
"#	c #4C2CB0",
"$	c #82D5F7",
"%	c #5230BC",
" .+@@@##",
" .@+@$%#"};
