/* XPM */
static char * maximize_pressed_xpm[] = {
"24 31 4 1",
" 	c #E6DDE6",
".	c #5D445D",
"+	c #C4AFC4",
"@	c #99759A",
"    ....................",
"   .....................",
"  ......................",
" .......................",
"+.......................",
"@.......................",
"........................",
"@@@@@@@@@@@@@@@@@@@@@@@@",
"@@+@+@+@+@+@+@+@+@+@+@+@",
"@++++++++++++++++++++++ ",
"@@+++..............++++ ",
"@++++.++++++++++++.+++  ",
"@@+++.++++++++++++..+++ ",
"@++++.++++++++++++..++  ",
"@@+++.++++++++++++..+++ ",
"@++++.++++++++++++..++  ",
"@@+++.++++++++++++..+++ ",
"@++++.++++++++++++..++  ",
"@@+++.++++++++++++..+++ ",
"@++++.++++++++++++..++  ",
"@@+++.++++++++++++..+++ ",
"@++++.++++++++++++..++  ",
"@@+++.++++++++++++..+++ ",
"@++++.++++++++++++..++  ",
"@@+++.++++++++++++..+++ ",
"@++++...............++  ",
"@@+++++.............+++ ",
"@+++++++++++++++++++++  ",
"@ + + + + + + + + + + + ",
"+                       ",
"........................"};
