/* XPM */
static char * maximize_inactive_xpm[] = {
"24 31 4 1",
" 	c #DCCFDC",
".	c #5D445D",
"+	c #B094B1",
"@	c #8C678D",
"    ....................",
"   .....................",
"  ......................",
" .......................",
"+.......................",
"@.......................",
"........................",
"                        ",
"  + + + + + + + + + + + ",
" ++++++++++++++++++++++@",
"  +++..............++++@",
" ++++.++++++++++++.+++@@",
"  +++.++++++++++++..+++@",
" ++++.++++++++++++..++@@",
"  +++.++++++++++++..+++@",
" ++++.++++++++++++..++@@",
"  +++.++++++++++++..+++@",
" ++++.++++++++++++..++@@",
"  +++.++++++++++++..+++@",
" ++++.++++++++++++..++@@",
"  +++.++++++++++++..+++@",
" ++++.++++++++++++..++@@",
"  +++.++++++++++++..+++@",
" ++++.++++++++++++..++@@",
"  +++.++++++++++++..+++@",
" ++++...............++@@",
"  +++++.............+++@",
" +++++++++++++++++++++@@",
" @+@+@+@+@+@+@+@+@+@+@+@",
"+@@@@@@@@@@@@@@@@@@@@@@@",
"........................"};
