/* XPM */
static char * menu_pressed_xpm[] = {
"24 31 4 1",
" 	c #5D445D",
".	c #E6DDE6",
"+	c #C4AFC4",
"@	c #99759A",
"                     .+@",
"                     +@@",
"                      +@",
"                      +@",
"                      +@",
"                      +@",
"                        ",
"@@@@@@@@@@@@@@@@@@@@@@@@",
"@@+@+@+@+@+@+@+@+@+@+@+@",
"@++++++++++++++++++++++.",
"@@+++++++++++++++++++++.",
"@+++++++++++++++++++++..",
"@@+++++++++++++++++++++.",
"@+++++++++++++++++++++..",
"@@+++++++++++++++++++++.",
"@+++++++++++++++++++++..",
"@@++                +++.",
"@+++ ++++++++++++++ ++..",
"@@++ ++++++++++++++  ++.",
"@+++                 +..",
"@@++++               ++.",
"@+++++++++++++++++++++..",
"@@+++++++++++++++++++++.",
"@+++++++++++++++++++++..",
"@@+++++++++++++++++++++.",
"@+++++++++++++++++++++..",
"@@+++++++++++++++++++++.",
"@+++++++++++++++++++++..",
"@++.+.+.+.+.+.+.+.+.+.+.",
"+.......................",
"                        "};
