/* XPM */
static char * title_active_xpm[] = {
"4 32 18 1",
" 	c #4729A4",
".	c #BDE9FB",
"+	c #9CDDF8",
"@	c #82D5F7",
"#	c #F5E5F6",
"$	c #FAF4FB",
"%	c #F6E7F7",
"&	c #FBF4FB",
"*	c #F5E2F6",
"=	c #F5E2F5",
"-	c #F5E1F5",
";	c #F4E1F5",
">	c #F2DAF3",
",	c #F3DEF4",
"'	c #F0D4F1",
")	c #F0D5F1",
"!	c #EAC2EB",
"~	c #E4B1E6",
"    ",
"    ",
"....",
".+.+",
"++++",
"++++",
"+@+@",
"    ",
"    ",
"#$%&",
"*=-;",
">>>,",
"''')",
"''''",
"''''",
"''''",
"''''",
"''''",
"''''",
"''''",
"''''",
"''''",
"''''",
"''''",
"''''",
"''''",
"''''",
"''''",
"''''",
"'!'!",
"!!!!",
"~~~~"};
