/* XPM */
static char * top_left_inactive_xpm[] = {
"8 34 7 1",
" 	c #4729A4",
".	c #5A35CC",
"+	c #F8ECF9",
"@	c #F0D4F1",
"#	c #EAC2EB",
"$	c #5230BC",
"%	c #4C2CB0",
"        ",
" .......",
" .+@+@+@",
" .@+@@@@",
" .+@@@@@",
" .@+@#@#",
" .+@@@#@",
" .@+@#$ ",
" .+@@@% ",
" .@+@#$ ",
" .+@@@% ",
" .@+@#$ ",
" .+@@@% ",
" .@+@#$ ",
" .+@@@% ",
" .@+@#$ ",
" .+@@@% ",
" .@+@#$ ",
" .+@@@% ",
" .@+@#$ ",
" .+@@@% ",
" .@+@#$ ",
" .+@@@% ",
" .@+@#$ ",
" .+@@@% ",
" .@+@#$ ",
" .+@@@% ",
" .@+@#$ ",
" .+@@@% ",
" .@+@#$ ",
" $#@@@% ",
" %####$ ",
" .+++@%%",
" .++@#$%"};
