/* XPM */
static char * top_right_active_xpm[] = {
"8 34 7 1",
" 	c #4729A4",
".	c #5A35CC",
"+	c #5230BC",
"@	c #BDE9FB",
"#	c #9CDDF8",
"$	c #4C2CB0",
"%	c #82D5F7",
"        ",
"......+ ",
"@#@#@#$ ",
"#####%+ ",
"######$ ",
"#%#@#%+ ",
"%#@###$ ",
" .#@#%+ ",
" .@###$ ",
" .#@#%+ ",
" .@###$ ",
" .#@#%+ ",
" .@###$ ",
" .#@#%+ ",
" .@###$ ",
" .#@#%+ ",
" .@###$ ",
" .#@#%+ ",
" .@###$ ",
" .#@#%+ ",
" .@###$ ",
" .#@#%+ ",
" .@###$ ",
" .#@#%+ ",
" .@###$ ",
" .#@#%+ ",
" .@###$ ",
" .#@#%+ ",
" .@###$ ",
" .#@#%+ ",
" .@#%#$ ",
" .#%%%$ ",
" .@@@@. ",
" .#@@@. "};
